PathFileType	4	(X/Y/Z)	C:\Users\Basilio\Documents\Thesis Gigler\squatting_fais\c3dfiles\019\SJ_pre2\markers_experimental.trc
DataRate	CameraRate	NumFrames	NumMarkers	Units	OrigDataRate	OrigDataStartFrame	OrigNumFrames
200.000000	200.000000	4	59	mm	200.000000	159	1278
Frame#	Time	FHD			LBHD			RBHD			C7			T10			CLAV			LSHO			LUUPA			LMUPA			LDUPA			LLEP			LMEP			LRAD			LUL			LRFIN			RSHO			RUPA1			RMUPA			RDUPA			RLEP			RMEP			RRAD			RUL			RUFIN			LASI			RASI			USACR			LSACR			RSACR			LTHI1			LTHI2			LTHI3			LTHI4			LLFC			LTIB1			LTIB2			LTIB3			LTIB4			LLMAL			LMMAL			LHEE			LMT1			LMT2			LMT5			RTHI			RTHI2			RTHI3			RTHI4			RLFC			RTIB1			RTIB2			RTIB3			RTIB4			RLMAL			RMMAL			RHEE			RMT1			RMT2			RMT5			
		X1	Y1	Z1	X2	Y2	Z2	X3	Y3	Z3	X4	Y4	Z4	X5	Y5	Z5	X6	Y6	Z6	X7	Y7	Z7	X8	Y8	Z8	X9	Y9	Z9	X10	Y10	Z10	X11	Y11	Z11	X12	Y12	Z12	X13	Y13	Z13	X14	Y14	Z14	X15	Y15	Z15	X16	Y16	Z16	X17	Y17	Z17	X18	Y18	Z18	X19	Y19	Z19	X20	Y20	Z20	X21	Y21	Z21	X22	Y22	Z22	X23	Y23	Z23	X24	Y24	Z24	X25	Y25	Z25	X26	Y26	Z26	X27	Y27	Z27	X28	Y28	Z28	X29	Y29	Z29	X30	Y30	Z30	X31	Y31	Z31	X32	Y32	Z32	X33	Y33	Z33	X34	Y34	Z34	X35	Y35	Z35	X36	Y36	Z36	X37	Y37	Z37	X38	Y38	Z38	X39	Y39	Z39	X40	Y40	Z40	X41	Y41	Z41	X42	Y42	Z42	X43	Y43	Z43	X44	Y44	Z44	X45	Y45	Z45	X46	Y46	Z46	X47	Y47	Z47	X48	Y48	Z48	X49	Y49	Z49	X50	Y50	Z50	X51	Y51	Z51	X52	Y52	Z52	X53	Y53	Z53	X54	Y54	Z54	X55	Y55	Z55	X56	Y56	Z56	X57	Y57	Z57	X58	Y58	Z58	X59	Y59	Z59	

160	0.795	-147.7529602050782	1666.876342773438	-858.3825683593752	-285.2550048828126	1658.845336914063	-997.3391113281252	-284.8101196289063	1651.3232421875	-857.933776855469	-326.0309448242188	1468.781616210938	-926.6435546875002	-361.9220581054688	1179.942626953125	-930.181579589844	-187.7168884277344	1428.602172851563	-936.7081298828127	-261.8667602539063	1464.08935546875	-1088.044067382813	-281.6140747070313	1317.290283203125	-1191.419067382813	-272.5039062500001	1274.954467773438	-1166.969116210938	-296.8770141601563	1257.868896484375	-1218.795043945313	-339.2833862304688	1204.718627929688	-1270.247680664063	-399.7164611816407	1193.270141601563	-1240.338134765625	-304.2532653808594	992.054626464844	-1131.5224609375	-283.0865783691407	968.9757080078127	-1191.250732421875	-258.1830139160157	977.2086181640627	-1097.976440429688	-241.0262603759766	1456.139038085938	-791.963073730469	-309.9194946289063	1332.681396484375	-650.8796997070314	-277.7202758789063	1294.04541015625	-651.0892333984376	-317.4447631835938	1275.115356445313	-610.9477539062501	-321.5497131347657	1198.487182617188	-580.5156860351564	-384.1212768554689	1198.208984375	-600.1719360351564	-302.6800842285157	992.9107055664065	-733.4088134765626	-273.9432678222657	962.9686279296877	-680.9631958007814	-252.009506225586	965.2749023437502	-771.895690917969	-248.8955535888672	962.9625244140627	-1043.47509765625	-236.3378448486329	959.7749023437502	-837.6819458007815	-383.0482788085938	1055.6474609375	-931.9485473632815	-396.624969482422	1023.855224609375	-956.7258300781252	-392.4487915039064	1027.163330078125	-899.5854492187502	-320.9903869628907	716.9662475585939	-1142.926513671875	-274.6931152343751	645.4928588867189	-1150.454833984375	-230.1162719726563	653.7622680664064	-1136.071411132813	-294.5942382812501	587.0753173828126	-1145.887329101563	-289.0968017578126	489.9447021484376	-1142.52783203125	-246.4966888427735	346.2048950195313	-1133.175170898438	-309.7383117675782	313.2409362792969	-1184.172485351563	-271.1895141601563	304.3033752441407	-1166.035888671875	-277.1663513183594	221.0068664550782	-1140.89990234375	-360.1925659179688	99.34189605712893	-1174.576416015625	-331.0811767578126	96.01745605468753	-1095.510009765625	-413.9999389648439	47.32059478759766	-1120.30126953125	-196.3643951416016	57.18536758422853	-1138.31396484375	-200.4511718750001	57.86745071411134	-1177.452758789063	-248.5671691894532	34.96441650390626	-1224.78857421875	-277.7591247558594	785.3245849609377	-730.4498291015626	-231.7637329101563	735.3006591796876	-725.4782104492189	-204.8645629882813	738.0609741210939	-749.5618896484376	-242.8977203369141	656.2449951171876	-714.4174804687501	-250.8849334716797	492.3493957519532	-722.1331787109376	-225.8965606689454	306.7910461425782	-751.3469238281251	-292.1539306640626	242.1646270751954	-689.2463989257814	-254.3229980468751	226.8316497802735	-717.5720214843751	-268.5111999511719	186.3121948242188	-753.9216918945314	-341.8143005371094	110.5907135009766	-701.9797363281251	-314.8852844238282	107.9586334228516	-776.291931152344	-392.7446899414064	57.71772766113283	-758.4566650390626	-184.047592163086	52.73047256469728	-737.1644897460939	-189.0367431640625	59.45923233032228	-690.9296264648439	-239.0892639160157	40.85530853271485	-647.5384521484376	
161	0.8	-146.6106262207032	1666.071166992188	-859.2941894531252	-284.7043151855469	1658.616333007813	-998.0740966796877	-283.6143188476563	1650.9013671875	-858.5737304687502	-325.2603454589844	1468.462036132813	-927.1948852539065	-362.0139770507813	1179.914306640625	-931.5333251953127	-186.7710876464844	1428.118530273438	-937.204528808594	-260.7467346191407	1463.733276367188	-1088.517822265625	-280.6578674316407	1317.247680664063	-1192.227416992188	-272.3836364746094	1274.655639648438	-1167.19580078125	-296.2006530761719	1257.942749023438	-1219.743408203125	-338.6902160644532	1205.028442382813	-1271.3955078125	-399.2575073242189	1193.965454101563	-1241.705078125	-305.0740661621094	992.1331176757815	-1132.657470703125	-283.8980102539063	968.949645996094	-1192.380737304688	-259.0968933105469	976.7823486328127	-1098.834106445313	-240.2800445556641	1455.67041015625	-792.8648681640627	-309.3575744628907	1332.632568359375	-651.4069213867189	-277.3631286621094	1293.987426757813	-651.7262573242189	-317.2002868652344	1274.96044921875	-611.5488891601564	-321.7458801269532	1198.314697265625	-581.0408935546876	-384.2847595214845	1198.663818359375	-600.7767944335939	-304.4599304199219	992.6571044921877	-734.2127685546876	-275.7187500000001	962.6256103515627	-681.7257690429689	-253.720199584961	964.8249511718752	-772.5672607421877	-249.8128356933594	962.3887939453127	-1044.314331054688	-238.1923370361329	959.3038330078127	-838.5949707031252	-384.0466308593751	1055.754760742188	-933.3682861328127	-397.7500610351564	1023.894287109375	-958.1746215820315	-393.8753662109376	1027.402709960938	-901.1125488281252	-321.2221069335938	716.3746948242189	-1143.78759765625	-274.4676818847657	645.2779541015626	-1151.474853515625	-229.8597259521485	653.8246459960939	-1137.181396484375	-293.9429626464844	586.8328857421876	-1146.75146484375	-287.8093872070313	489.568328857422	-1143.39990234375	-245.4511718750001	345.8485717773438	-1133.6376953125	-308.6874084472657	312.9301757812501	-1184.596069335938	-270.2197875976563	303.8850097656251	-1166.2939453125	-276.5859680175782	220.6724548339844	-1141.011108398438	-359.9881286621094	99.3016052246094	-1174.547119140625	-330.8348999023438	95.97646331787111	-1095.422485351563	-413.9821777343751	47.35906219482423	-1120.296875	-196.1112518310547	57.07143402099611	-1138.24853515625	-200.4071197509766	57.79948806762697	-1177.500610351563	-248.5531158447266	35.02579498291016	-1224.78955078125	-279.6881713867188	785.422546386719	-731.0304565429689	-234.0203857421876	740.2396240234376	-730.2356567382814	-206.5794677734376	738.7832641601564	-749.6239624023439	-244.0621185302735	656.8461303710939	-714.4090576171876	-250.9889068603516	492.9065246582032	-721.6389770507814	-225.6929321289063	307.2504882812501	-750.8085327148439	-291.5764465332032	242.761703491211	-688.2912597656251	-254.1821746826172	227.3362121582032	-716.7974243164064	-268.5250549316407	186.7744598388672	-753.2268676757814	-341.6181945800782	111.1588973999024	-700.6537475585939	-314.9909362792969	108.4712371826172	-775.1975708007815	-393.2281494140626	58.51308059692384	-756.8000488281251	-184.1965942382813	52.75668334960939	-737.0819702148439	-189.0249328613282	59.66858291625978	-690.9147338867189	-238.6164703369141	40.94929122924805	-647.1113891601564	
162	0.805	-145.0919647216797	1665.577026367188	-857.353942871094	-283.2229614257813	1658.1005859375	-998.6583251953127	-282.5032348632813	1650.276611328125	-859.1914062500002	-324.2243957519532	1468.046752929688	-927.7193603515627	-361.8577270507813	1179.761596679688	-932.8786621093752	-185.8103485107422	1427.641235351563	-937.671569824219	-259.5763244628907	1463.349609375	-1089.013305664063	-279.7176208496094	1317.147094726563	-1193.078857421875	-271.2040405273438	1274.686401367188	-1168.573852539063	-295.4113464355469	1257.958129882813	-1220.612060546875	-338.1289367675782	1205.3046875	-1272.484375	-398.7318420410157	1194.580078125	-1242.992065429688	-305.9433898925782	992.0446777343752	-1133.802612304688	-284.7173156738282	968.8671875000002	-1193.393920898438	-260.3966369628907	976.2674560546877	-1100.078735351563	-239.0205383300782	1454.826416015625	-793.4839477539065	-308.6033020019532	1332.544677734375	-651.9217529296876	-277.0340881347657	1293.603515625	-652.4036865234376	-316.9333496093751	1274.831176757813	-612.1385498046876	-321.9877014160157	1198.0361328125	-581.6028442382814	-384.5709838867189	1199.056884765625	-601.3736572265626	-306.4119262695313	992.4439086914065	-735.0768432617189	-277.9869995117188	962.1018066406252	-682.6060791015626	-255.9547882080079	964.3548583984377	-773.510681152344	-251.0591430664063	961.7713623046877	-1045.192626953125	-240.0678253173829	958.9328613281252	-839.5579833984377	-384.8875122070314	1055.733032226563	-934.826110839844	-398.7759094238282	1023.881042480469	-959.559265136719	-394.7235107421876	1027.321411132813	-902.3823852539065	-321.5710754394532	715.7829589843751	-1144.692504882813	-274.2979736328126	644.9066162109376	-1152.286987304688	-229.8476562500001	653.8225097656251	-1138.399658203125	-293.5059204101563	586.3923339843751	-1147.547729492188	-286.8619995117188	489.3573303222657	-1144.261352539063	-244.1786193847657	345.3294067382813	-1134.087890625	-307.7861938476563	312.5083007812501	-1185.078979492188	-269.4656372070313	303.5715637207032	-1166.675170898438	-275.9526367187501	220.3834228515626	-1141.1552734375	-359.8104553222657	99.28752136230472	-1174.506103515625	-330.6615295410157	95.90966796875001	-1095.402465820313	-413.9780273437501	47.39697265625001	-1120.282592773438	-196.1345825195313	57.12258529663087	-1138.189208984375	-200.3730621337891	57.75742340087892	-1177.507080078125	-248.5109863281251	34.97736740112305	-1224.783935546875	-281.6042175292969	785.4761352539065	-731.4851684570314	-234.3440246582032	736.1618041992189	-724.8643798828126	-207.9938354492188	739.1907348632814	-750.0476684570314	-245.1544494628907	657.4613647460939	-714.3762207031251	-251.1951293945313	493.3230590820314	-721.0794677734376	-225.6858673095704	307.5991821289063	-750.1903076171876	-291.7021789550782	243.1897888183594	-687.5967407226564	-254.2036895751954	227.7990875244141	-715.9091796875001	-268.7718505859376	187.3144836425782	-752.4178466796876	-341.5378723144532	111.5195617675782	-699.4160766601564	-315.3926086425782	108.9613494873047	-774.3050537109377	-393.4353332519532	58.92179489135744	-755.3060913085939	-184.4730377197266	52.82801818847658	-737.0768432617189	-189.00927734375	59.85640335083009	-690.8677978515626	-238.0686492919922	40.89004516601563	-646.8171997070314	
163	0.8100000000000001	-143.8114624023438	1664.435546875	-857.6611328125002	-281.7703857421876	1657.540283203125	-999.3345947265627	-281.2840270996094	1649.6748046875	-859.7737426757815	-322.9836730957032	1467.663208007813	-928.2769775390627	-361.8889770507813	1179.571899414063	-934.1032714843752	-184.7669982910157	1426.957763671875	-938.1006469726565	-258.3684082031251	1462.831909179688	-1089.362426757813	-278.8225708007813	1317.001220703125	-1193.720825195313	-270.5841674804688	1274.497436523438	-1169.397216796875	-294.6718139648438	1257.866577148438	-1221.450805664063	-337.4749145507813	1205.411743164063	-1273.49951171875	-398.392303466797	1195.185424804688	-1244.248779296875	-306.7374572753907	991.8662109375002	-1134.760375976563	-285.6674804687501	968.6343383789065	-1194.56982421875	-261.3194580078126	975.7150878906252	-1100.97216796875	-237.8721618652344	1454.400756835938	-794.107849121094	-307.7138366699219	1332.070434570313	-652.5046386718751	-276.6614379882813	1293.314086914063	-653.1015625000001	-316.5222473144532	1274.788452148438	-612.6989135742189	-322.3592224121094	1197.817626953125	-582.2765502929689	-384.9635620117189	1199.28857421875	-601.9675292968751	-308.1034545898438	992.2413330078127	-735.7447509765626	-279.9433593750001	961.733825683594	-683.3729858398439	-257.2745971679688	963.8377075195315	-774.055847167969	-252.3227996826172	961.0244750976565	-1046.092163085938	-241.9140014648438	958.5625000000002	-840.4340820312502	-385.8626708984376	1055.743896484375	-936.098815917969	-399.929168701172	1023.957824707031	-960.868347167969	-396.3170776367189	1027.498779296875	-903.8748779296877	-321.7336730957032	715.0457153320314	-1145.52099609375	-274.4488525390626	644.5541992187501	-1153.320556640625	-229.9018859863282	653.8244018554689	-1139.7373046875	-293.2933959960938	585.9466552734376	-1148.373291015625	-286.1471557617188	489.0854492187501	-1145.05419921875	-243.4731445312501	344.8808288574219	-1134.301147460938	-307.1480712890626	312.1302490234376	-1185.642211914063	-268.7904968261719	303.2620544433594	-1167.112670898438	-275.5750122070313	220.1758270263672	-1141.31103515625	-359.6303100585938	99.1514587402344	-1174.462768554688	-330.6326293945313	95.91577148437501	-1095.346801757813	-413.9609680175782	47.36928176879884	-1120.240844726563	-196.0159454345704	57.04079055786134	-1138.227294921875	-200.354476928711	57.73292541503908	-1177.496459960938	-248.5564727783204	34.93852615356446	-1224.799926757813	-283.2463073730469	785.0820312500002	-731.7827758789064	-237.0999298095704	740.8883056640626	-730.6717529296876	-209.4653472900391	740.6212768554689	-750.8126831054689	-246.1383056640626	657.6091308593751	-714.1253051757814	-251.3673706054688	493.6841735839845	-720.3829956054689	-225.7304229736329	307.9410095214844	-749.4656372070314	-291.9453735351563	243.6414337158204	-686.8480224609376	-254.2696380615235	228.1280822753907	-715.2318115234376	-269.0443420410157	187.8333740234375	-751.6033935546876	-341.6081237792969	111.9609527587891	-698.3049316406251	-315.8533325195313	109.4897155761719	-773.249938964844	-393.8941345214845	59.41156005859376	-753.8410644531251	-184.7431640625	52.871150970459	-737.0125122070314	-189.0059967041016	60.04963302612306	-690.8016357421876	-237.6365966796876	40.93570709228516	-646.5160522460939	
